<svg version="1.1" id="Layer_1" xmlns="http://www.w3.org/2000/svg" xmlns:xlink="http://www.w3.org/1999/xlink" x="0px" y="0px"
	 width="100%" viewBox="0 0 200 200" enable-background="new 0 0 200 200" xml:space="preserve">
<path fill="#000000" opacity="1.000000" stroke="none" 
	d="
M135.000000,201.000000 
	C90.000000,201.000000 45.500004,201.000000 1.000006,201.000000 
	C1.000004,134.333344 1.000004,67.666679 1.000002,1.000015 
	C67.666656,1.000010 134.333313,1.000010 200.999969,1.000005 
	C200.999985,67.666649 200.999985,134.333298 201.000000,200.999969 
	C179.166672,201.000000 157.333328,201.000000 135.000000,201.000000 
M93.951462,84.927467 
	C92.510857,85.284836 91.073975,85.932686 89.629021,85.951271 
	C81.710526,86.053062 73.788750,85.928635 65.871521,86.071289 
	C64.539932,86.095276 63.225014,87.044739 61.862671,88.248192 
	C64.122581,98.872459 72.286255,97.900719 80.336067,96.752708 
	C78.806946,106.136330 77.408859,114.715874 75.745285,124.924553 
	C81.892715,122.444397 86.853912,120.442818 92.520943,118.156471 
	C89.840057,125.990639 87.410919,133.089142 84.981781,140.187653 
	C85.642624,140.528244 86.303459,140.868820 86.964302,141.209412 
	C96.345520,129.277527 105.726738,117.345619 115.107964,105.413727 
	C114.715790,104.855347 114.323616,104.296967 113.931442,103.738586 
	C106.341835,105.128319 98.752228,106.518051 90.778526,107.978119 
	C90.991577,106.381783 91.093971,105.285286 91.289482,104.205650 
	C92.229996,99.012077 93.195633,93.823059 94.754967,88.779533 
	C95.153290,88.894562 95.551613,89.009583 96.242142,89.793869 
	C98.124039,93.549438 100.005936,97.305000 102.380318,101.737350 
	C107.876099,102.904427 112.211807,101.931747 114.639107,96.067406 
	C115.667099,93.583786 117.799973,91.578186 119.259064,89.247879 
	C122.039490,84.807274 124.696663,80.289497 127.565628,75.537743 
	C116.222160,73.806770 116.248199,73.832764 111.493340,82.939674 
	C110.530403,84.783981 109.158363,86.414680 107.345070,87.765862 
	C107.832420,85.083618 103.291534,83.037804 106.955399,79.754646 
	C108.385284,77.952438 109.800270,76.138168 111.247772,74.350227 
	C116.130821,68.318748 116.526184,61.442944 113.382126,54.892532 
	C110.217758,48.299778 105.655151,42.249023 97.387886,41.700901 
	C89.316925,41.165791 81.204147,41.261253 72.399628,41.266335 
	C72.275734,42.224049 72.151840,43.181759 71.967857,44.501068 
	C71.967857,44.501068 72.054512,44.857231 71.248390,45.258045 
	C71.169266,57.272419 71.072792,69.286774 71.057213,81.301231 
	C71.056343,81.971756 71.723717,82.643143 72.693787,83.862785 
	C79.689224,83.922333 86.684662,83.981888 93.854362,84.219398 
	C93.854362,84.219398 94.049080,84.065887 93.951462,84.927467 
z"/>
<path fill="#1C314A" opacity="1.000000" stroke="none" 
	d="
M94.152344,88.632423 
	C93.195633,93.823059 92.229996,99.012077 91.289482,104.205650 
	C91.093971,105.285286 90.991577,106.381783 90.778526,107.978119 
	C98.752228,106.518051 106.341835,105.128319 113.931442,103.738586 
	C114.323616,104.296967 114.715790,104.855347 115.107964,105.413727 
	C105.726738,117.345619 96.345520,129.277527 86.964302,141.209412 
	C86.303459,140.868820 85.642624,140.528244 84.981781,140.187653 
	C87.410919,133.089142 89.840057,125.990639 92.520943,118.156471 
	C86.853912,120.442818 81.892715,122.444397 75.745285,124.924553 
	C77.408859,114.715874 78.806946,106.136330 80.336067,96.752708 
	C72.286255,97.900719 64.122581,98.872459 62.338219,87.761230 
	C72.279381,87.218109 81.745277,87.116699 91.210213,87.173370 
	C92.193802,87.179260 93.171768,88.123543 94.152344,88.632423 
z"/>
<path fill="#14304D" opacity="1.000000" stroke="none" 
	d="
M73.109726,41.079899 
	C81.204147,41.261253 89.316925,41.165791 97.387886,41.700901 
	C105.655151,42.249023 110.217758,48.299778 113.382126,54.892532 
	C116.526184,61.442944 116.130821,68.318748 111.247772,74.350227 
	C109.800270,76.138168 108.385284,77.952438 106.338333,79.702896 
	C104.090744,78.137627 102.460205,76.624107 100.896530,74.748932 
	C101.576591,73.415825 102.096497,72.368034 102.818520,71.485619 
	C106.734245,66.700043 107.165520,61.437920 104.515038,56.069572 
	C101.977829,50.930653 97.476097,48.792976 91.796921,48.972084 
	C89.303047,49.050735 86.798500,49.112907 84.310432,48.974060 
	C81.028214,48.790890 79.890991,50.330322 79.951523,53.452271 
	C80.064415,59.274811 80.053520,65.102112 79.960670,70.925301 
	C79.912849,73.925003 81.266678,74.898003 84.162117,75.122948 
	C86.819641,75.329414 89.414474,76.342903 92.151199,77.344719 
	C92.737007,79.806221 93.208549,81.923836 93.680099,84.041443 
	C86.684662,83.981888 79.689224,83.922333 72.486206,83.106522 
	C72.203918,69.852577 72.129219,57.354904 72.054512,44.857231 
	C72.054512,44.857231 71.967857,44.501068 72.229874,44.074104 
	C72.697845,42.791397 72.903786,41.935646 73.109726,41.079899 
z"/>
<path fill="#3173A3" opacity="1.000000" stroke="none" 
	d="
M107.974930,88.143852 
	C109.158363,86.414680 110.530403,84.783981 111.493340,82.939674 
	C116.248199,73.832764 116.222160,73.806770 127.565628,75.537743 
	C124.696663,80.289497 122.039490,84.807274 119.259064,89.247879 
	C117.799973,91.578186 115.667099,93.583786 114.639107,96.067406 
	C112.211807,101.931747 107.876099,102.904427 102.265839,101.078934 
	C104.092552,96.328293 106.033737,92.236069 107.974930,88.143852 
z"/>
<path fill="#3AA7CA" opacity="1.000000" stroke="none" 
	d="
M107.660004,87.954857 
	C106.033737,92.236069 104.092552,96.328293 102.019592,100.740540 
	C100.005936,97.305000 98.124039,93.549438 96.203911,89.096573 
	C95.460144,86.954811 94.754616,85.510353 94.049080,84.065887 
	C94.049080,84.065887 93.854362,84.219398 93.767227,84.130417 
	C93.208549,81.923836 92.737007,79.806221 92.316483,77.006363 
	C95.188217,75.919617 98.008949,75.515106 100.829674,75.110596 
	C102.460205,76.624107 104.090744,78.137627 106.043488,79.839645 
	C103.291534,83.037804 107.832420,85.083618 107.660004,87.954857 
z"/>
<path fill="#D2E2EB" opacity="1.000000" stroke="none" 
	d="
M94.000275,84.496674 
	C94.754616,85.510353 95.460144,86.954811 96.057808,88.761948 
	C95.551613,89.009583 95.153290,88.894562 94.453659,88.705978 
	C93.171768,88.123543 92.193802,87.179260 91.210213,87.173370 
	C81.745277,87.116699 72.279381,87.218109 62.358078,87.420433 
	C63.225014,87.044739 64.539932,86.095276 65.871521,86.071289 
	C73.788750,85.928635 81.710526,86.053062 89.629021,85.951271 
	C91.073975,85.932686 92.510857,85.284836 94.000275,84.496674 
z"/>
<path fill="#CED6DD" opacity="1.000000" stroke="none" 
	d="
M71.651451,45.057640 
	C72.129219,57.354904 72.203918,69.852577 72.179337,82.832191 
	C71.723717,82.643143 71.056343,81.971756 71.057213,81.301231 
	C71.072792,69.286774 71.169266,57.272419 71.651451,45.057640 
z"/>
<path fill="#515E6C" opacity="1.000000" stroke="none" 
	d="
M72.754677,41.173119 
	C72.903786,41.935646 72.697845,42.791397 72.259918,43.893311 
	C72.151840,43.181759 72.275734,42.224049 72.754677,41.173119 
z"/>
<path fill="#256CA2" opacity="1.000000" stroke="none" 
	d="
M100.896530,74.748932 
	C98.008949,75.515106 95.188217,75.919617 92.202209,76.662476 
	C89.414474,76.342903 86.819641,75.329414 84.162117,75.122948 
	C81.266678,74.898003 79.912849,73.925003 79.960670,70.925301 
	C80.053520,65.102112 80.064415,59.274811 79.951523,53.452271 
	C79.890991,50.330322 81.028214,48.790890 84.310432,48.974060 
	C86.798500,49.112907 89.303047,49.050735 91.796921,48.972084 
	C97.476097,48.792976 101.977829,50.930653 104.515038,56.069572 
	C107.165520,61.437920 106.734245,66.700043 102.818520,71.485619 
	C102.096497,72.368034 101.576591,73.415825 100.896530,74.748932 
M85.114281,67.431755 
	C85.685745,67.748466 86.231384,68.129631 86.833122,68.370811 
	C89.532539,69.452736 92.564049,69.588036 93.485596,66.545731 
	C94.270042,63.956024 94.183662,60.589561 93.168037,58.103836 
	C92.025627,55.307819 88.671677,54.838299 86.590508,57.080433 
	C84.868912,58.935200 84.128899,61.786747 83.280373,64.306564 
	C83.065651,64.944221 84.096664,66.001381 85.114281,67.431755 
z"/>
<path fill="#000000" opacity="1.000000" stroke="none" 
	d="
M84.834763,67.148758 
	C84.096664,66.001381 83.065651,64.944221 83.280373,64.306564 
	C84.128899,61.786747 84.868912,58.935200 86.590508,57.080433 
	C88.671677,54.838299 92.025627,55.307819 93.168037,58.103836 
	C94.183662,60.589561 94.270042,63.956024 93.485596,66.545731 
	C92.564049,69.588036 89.532539,69.452736 86.833122,68.370811 
	C86.231384,68.129631 85.685745,67.748466 84.834763,67.148758 
z"/>
</svg>